<svg width="24" height="24" viewBox="0 0 24 24" fill="none" xmlns="http://www.w3.org/2000/svg">
<path d="M4.50056 14.9999C3.61054 14.9999 2.74051 15.2639 2.00049 15.7583C1.26047 16.2528 0.683693 16.9556 0.343098 17.7779C0.00250381 18.6001 -0.0866112 19.5049 0.0870223 20.3778C0.260656 21.2508 0.689239 22.0526 1.31858 22.6819C1.94791 23.3113 2.74974 23.7398 3.62265 23.9135C4.49556 24.0871 5.40036 23.998 6.22263 23.6574C7.0449 23.3168 7.7477 22.74 8.24217 22C8.73664 21.26 9.00056 20.39 9.00056 19.4999C9.00056 18.3065 8.52645 17.1619 7.68254 16.318C6.83862 15.474 5.69403 14.9999 4.50056 14.9999ZM4.50056 21.9999C4.0061 21.9999 3.52275 21.8533 3.11163 21.5786C2.70051 21.3039 2.38008 20.9135 2.19086 20.4566C2.00164 19.9998 1.95213 19.4972 2.04859 19.0122C2.14506 18.5273 2.38316 18.0818 2.73279 17.7322C3.08242 17.3825 3.52788 17.1444 4.01283 17.048C4.49778 16.9515 5.00045 17.001 5.45726 17.1902C5.91408 17.3795 6.30453 17.6999 6.57923 18.111C6.85393 18.5221 7.00056 19.0055 7.00056 19.4999C7.00056 20.163 6.73716 20.7989 6.26832 21.2677C5.79948 21.7365 5.1636 21.9999 4.50056 21.9999ZM0.293056 9.29244L2.08681 7.49994L0.293056 5.70744C0.105415 5.5198 -3.95423e-09 5.2653 0 4.99994C3.95423e-09 4.73458 0.105415 4.48008 0.293056 4.29244C0.480697 4.1048 0.735192 3.99938 1.00056 3.99938C1.26592 3.99938 1.52042 4.1048 1.70806 4.29244L3.50056 6.08619L5.29306 4.29244C5.4807 4.1048 5.73519 3.99938 6.00056 3.99938C6.26592 3.99938 6.52041 4.1048 6.70806 4.29244C6.8957 4.48008 7.00111 4.73458 7.00111 4.99994C7.00111 5.2653 6.8957 5.5198 6.70806 5.70744L4.91431 7.49994L6.70806 9.29244C6.8957 9.48008 7.00111 9.73458 7.00111 9.99994C7.00111 10.2653 6.8957 10.5198 6.70806 10.7074C6.52042 10.8951 6.26592 11.0005 6.00056 11.0005C5.73519 11.0005 5.4807 10.8951 5.29306 10.7074L3.50056 8.91369L1.70806 10.7074C1.52042 10.8951 1.26592 11.0005 1.00056 11.0005C0.735192 11.0005 0.480697 10.8951 0.293056 10.7074C0.105415 10.5198 3.95423e-09 10.2653 0 9.99994C-3.95423e-09 9.73458 0.105415 9.48008 0.293056 9.29244ZM23.7081 21.2924C23.801 21.3853 23.8747 21.4956 23.9249 21.617C23.9752 21.7384 24.0011 21.8685 24.0011 21.9999C24.0011 22.1313 23.9752 22.2614 23.9249 22.3828C23.8747 22.5042 23.801 22.6145 23.7081 22.7074C23.6151 22.8003 23.5048 22.874 23.3835 22.9243C23.2621 22.9746 23.132 23.0005 23.0006 23.0005C22.8692 23.0005 22.7391 22.9746 22.6177 22.9243C22.4963 22.874 22.386 22.8003 22.2931 22.7074L20.5006 20.9137L18.7081 22.7074C18.5204 22.8951 18.2659 23.0005 18.0006 23.0005C17.7352 23.0005 17.4807 22.8951 17.2931 22.7074C17.1054 22.5198 17 22.2653 17 21.9999C17 21.7346 17.1054 21.4801 17.2931 21.2924L19.0868 19.4999L17.2931 17.7074C17.1054 17.5198 17 17.2653 17 16.9999C17 16.7346 17.1054 16.4801 17.2931 16.2924C17.4807 16.1048 17.7352 15.9994 18.0006 15.9994C18.2659 15.9994 18.5204 16.1048 18.7081 16.2924L20.5006 18.0862L22.2931 16.2924C22.4807 16.1048 22.7352 15.9994 23.0006 15.9994C23.2659 15.9994 23.5204 16.1048 23.7081 16.2924C23.8957 16.4801 24.0011 16.7346 24.0011 16.9999C24.0011 17.2653 23.8957 17.5198 23.7081 17.7074L21.9143 19.4999L23.7081 21.2924ZM18.0593 10.1037C17.2868 12.8949 14.8943 15.3074 12.2431 15.9699C12.1613 15.9903 12.0773 16.0003 11.9931 15.9999C11.7492 15.9995 11.5139 15.91 11.3315 15.7482C11.149 15.5864 11.032 15.3635 11.0023 15.1215C10.9727 14.8795 11.0325 14.6349 11.1705 14.4339C11.3086 14.2329 11.5153 14.0892 11.7518 14.0299C13.7056 13.5412 15.5456 11.6662 16.1268 9.56994C16.5256 8.13244 16.5293 5.94494 14.2881 3.70744L14.0006 3.41369V5.99994C14.0006 6.26516 13.8952 6.51951 13.7077 6.70705C13.5201 6.89458 13.2658 6.99994 13.0006 6.99994C12.7353 6.99994 12.481 6.89458 12.2934 6.70705C12.1059 6.51951 12.0006 6.26516 12.0006 5.99994V0.999939C12.0006 0.734722 12.1059 0.480369 12.2934 0.292832C12.481 0.105296 12.7353 -6.10352e-05 13.0006 -6.10352e-05H18.0006C18.2658 -6.10352e-05 18.5201 0.105296 18.7077 0.292832C18.8952 0.480369 19.0006 0.734722 19.0006 0.999939C19.0006 1.26516 18.8952 1.51951 18.7077 1.70705C18.5201 1.89458 18.2658 1.99994 18.0006 1.99994H15.4143L15.7081 2.29244C17.9881 4.57369 18.8231 7.34744 18.0593 10.1037Z" fill="white"/>
</svg>
