<svg width="26" height="27" viewBox="0 0 26 27" fill="none" xmlns="http://www.w3.org/2000/svg">
<path d="M25.385 5.07733L13.385 0.0773335C13.2632 0.0259718 13.1323 -0.000488281 13 -0.000488281C12.8678 -0.000488281 12.7369 0.0259718 12.615 0.0773335L0.615012 5.07733C0.411993 5.16202 0.242562 5.31129 0.132962 5.50202C0.0233619 5.69274 -0.0202918 5.91429 0.0087622 6.13233L2.00876 21.1323C2.03027 21.2942 2.09108 21.4483 2.18586 21.5812C2.28064 21.7141 2.40652 21.8218 2.55251 21.8948L12.5525 26.8948C12.6914 26.9644 12.8447 27.0005 13 27.0005C13.1554 27.0005 13.3086 26.9644 13.4475 26.8948L23.4475 21.8948C23.5935 21.8218 23.7194 21.7141 23.8142 21.5812C23.9089 21.4483 23.9697 21.2942 23.9913 21.1323L25.9913 6.13233C26.0203 5.91429 25.9767 5.69274 25.8671 5.50202C25.7575 5.31129 25.588 5.16202 25.385 5.07733ZM22.0788 20.3423L13 24.8823L3.92126 20.3423L2.09251 6.62483L13 2.08358L23.9075 6.62483L22.0788 20.3423Z" fill="white"/>
</svg>
