<svg width="26" height="26" viewBox="0 0 26 26" fill="none" xmlns="http://www.w3.org/2000/svg">
<path d="M2.16667 26L23.8333 26C24.408 26 24.9591 25.7717 25.3654 25.3654C25.7717 24.9591 26 24.408 26 23.8333L26 2.16667C26 1.59203 25.7717 1.04093 25.3654 0.634601C24.9591 0.228273 24.408 -9.53674e-07 23.8333 -9.53674e-07L2.16667 -9.53674e-07C1.59203 -9.53674e-07 1.04093 0.228273 0.634601 0.634601C0.228273 1.04093 -9.53674e-07 1.59203 -9.53674e-07 2.16667L-9.53674e-07 23.8333C-9.53674e-07 24.408 0.228273 24.9591 0.634601 25.3654C1.04093 25.7717 1.59203 26 2.16667 26ZM2.16667 2.16667L23.8333 2.16667L23.8333 23.8333L2.16667 23.8333L2.16667 2.16667ZM19.1831 12.2335C19.2838 12.3342 19.3638 12.4536 19.4183 12.5851C19.4728 12.7167 19.5009 12.8576 19.5009 13C19.5009 13.1424 19.4728 13.2833 19.4183 13.4149C19.3638 13.5464 19.2838 13.6658 19.1831 13.7665L14.8498 18.0998C14.6465 18.3031 14.3708 18.4173 14.0833 18.4173C13.7959 18.4173 13.5202 18.3031 13.3169 18.0998C13.1136 17.8965 12.9994 17.6208 12.9994 17.3333C12.9994 17.0459 13.1136 16.7702 13.3169 16.5669L15.8018 14.0833L7.58333 14.0833C7.29601 14.0833 7.02046 13.9692 6.8173 13.766C6.61414 13.5629 6.5 13.2873 6.5 13C6.5 12.7127 6.61414 12.4371 6.8173 12.234C7.02046 12.0308 7.29601 11.9167 7.58333 11.9167L15.8018 11.9167L13.3169 9.43312C13.2162 9.33247 13.1364 9.21298 13.0819 9.08147C13.0274 8.94996 12.9994 8.80901 12.9994 8.66667C12.9994 8.52432 13.0274 8.38337 13.0819 8.25186C13.1364 8.12035 13.2162 8.00086 13.3169 7.90021C13.4175 7.79955 13.537 7.71971 13.6685 7.66524C13.8 7.61077 13.941 7.58273 14.0833 7.58273C14.2257 7.58273 14.3666 7.61077 14.4981 7.66524C14.6296 7.71971 14.7491 7.79955 14.8498 7.90021L19.1831 12.2335Z" fill="white"/>
</svg>
