<svg width="29" height="27" viewBox="0 0 29 27" fill="none" xmlns="http://www.w3.org/2000/svg">
<path d="M27.9063 10.1609C27.7852 9.78767 27.5569 9.45828 27.25 9.21378C26.943 8.96929 26.5709 8.8205 26.18 8.78594L18.7563 8.14594L15.8463 1.22594C15.6948 0.862835 15.4392 0.552674 15.1118 0.334512C14.7844 0.116349 14.3997 -6.10352e-05 14.0063 -6.10352e-05C13.6128 -6.10352e-05 13.2282 0.116349 12.9008 0.334512C12.5733 0.552674 12.3178 0.862835 12.1663 1.22594L9.26503 8.14594L1.83253 8.78969C1.44007 8.82267 1.06609 8.97078 0.757476 9.21546C0.448862 9.46014 0.219358 9.79048 0.0977427 10.1651C-0.0238726 10.5397 -0.0321851 10.9418 0.0738477 11.3211C0.179881 11.7004 0.395539 12.04 0.693778 12.2972L6.33253 17.2247L4.64253 24.5422C4.55316 24.9251 4.57866 25.3259 4.71584 25.6944C4.85301 26.0629 5.09577 26.3828 5.41377 26.6141C5.73177 26.8454 6.11089 26.9778 6.50374 26.9948C6.8966 27.0118 7.28574 26.9127 7.62253 26.7097L13.9975 22.8347L20.3863 26.7097C20.7231 26.9127 21.1122 27.0118 21.5051 26.9948C21.8979 26.9778 22.277 26.8454 22.595 26.6141C22.913 26.3828 23.1558 26.0629 23.293 25.6944C23.4301 25.3259 23.4556 24.9251 23.3663 24.5422L21.6775 17.2172L27.315 12.2972C27.6132 12.0391 27.8285 11.6986 27.9337 11.3185C28.0389 10.9384 28.0293 10.5356 27.9063 10.1609ZM26.0038 10.7859L20.3663 15.7059C20.0919 15.9446 19.8878 16.2536 19.7759 16.5996C19.664 16.9456 19.6486 17.3156 19.7313 17.6697L21.425 24.9997L15.0413 21.1247C14.7298 20.935 14.3722 20.8347 14.0075 20.8347C13.6429 20.8347 13.2852 20.935 12.9738 21.1247L6.59878 24.9997L8.28128 17.6747C8.36397 17.3206 8.34854 16.9506 8.23665 16.6046C8.12476 16.2586 7.92065 15.9496 7.64628 15.7109L2.00628 10.7934C2.00582 10.7897 2.00582 10.7859 2.00628 10.7822L9.43628 10.1397C9.79903 10.1077 10.1462 9.97731 10.4402 9.76253C10.7343 9.54775 10.9642 9.25676 11.105 8.92094L14.0063 2.00969L16.9063 8.92094C17.0471 9.25676 17.277 9.54775 17.5711 9.76253C17.8651 9.97731 18.2123 10.1077 18.575 10.1397L26.0063 10.7822C26.0063 10.7822 26.0063 10.7897 26.0063 10.7909L26.0038 10.7859Z" fill="white"/>
</svg>
