<svg width="30" height="29" viewBox="0 0 30 29" fill="none" xmlns="http://www.w3.org/2000/svg">
<path d="M27.8424 4.17227C27.4709 3.80074 27.0299 3.50602 26.5445 3.30495C26.0592 3.10387 25.539 3.00038 25.0136 3.00038C24.4882 3.00038 23.968 3.10387 23.4827 3.30495C22.9973 3.50602 22.5563 3.80074 22.1849 4.17227C21.9331 4.42389 21.7162 4.70808 21.5399 5.01727L18.0124 4.05477C18.0233 3.25897 17.7965 2.47801 17.3611 1.81179C16.9257 1.14556 16.3015 0.624363 15.5683 0.314859C14.835 0.00535405 14.0262 -0.0783845 13.2451 0.0743545C12.464 0.227093 11.7462 0.609366 11.1836 1.17227C10.5829 1.77444 10.1893 2.55213 10.0599 3.3928C9.93042 4.23348 10.0718 5.09354 10.4636 5.84852L6.22111 9.66727C5.45138 9.15852 4.52964 8.93106 3.6116 9.02329C2.69356 9.11553 1.83549 9.52182 1.18236 10.1735C0.452067 10.8983 0.0291326 11.8766 0.00144963 12.9051C-0.0262333 13.9336 0.343465 14.9332 1.03371 15.6962C1.72396 16.4592 2.68166 16.9268 3.70779 17.002C4.73392 17.0772 5.74955 16.754 6.54361 16.0998L15.2936 22.5198C15.0136 23.221 14.9377 23.9872 15.0749 24.7297C15.212 25.4722 15.5565 26.1607 16.0685 26.7157C16.5805 27.2706 17.2392 27.6693 17.9683 27.8656C18.6974 28.062 19.4671 28.0479 20.1886 27.8251C20.91 27.6024 21.5537 27.1799 22.0452 26.6067C22.5366 26.0334 22.8557 25.3328 22.9657 24.5858C23.0757 23.8387 22.972 23.0758 22.6665 22.3853C22.3611 21.6948 21.8665 21.1048 21.2399 20.6835L24.6636 10.9848C24.7786 10.9948 24.8936 10.9998 25.0086 10.9998C25.7996 10.9997 26.5727 10.765 27.2304 10.3256C27.888 9.88613 28.4006 9.26156 28.7034 8.53083C29.0061 7.80011 29.0855 6.99602 28.9313 6.22023C28.7772 5.44443 28.3965 4.73175 27.8374 4.17227H27.8424ZM12.5924 2.58602C12.8722 2.30654 13.2285 2.11628 13.6164 2.03929C14.0043 1.9623 14.4063 2.00204 14.7717 2.15348C15.137 2.30492 15.4492 2.56126 15.6689 2.89011C15.8885 3.21896 16.0058 3.60556 16.0058 4.00102C16.0058 4.39649 15.8885 4.78308 15.6689 5.11193C15.4492 5.44078 15.137 5.69713 14.7717 5.84857C14.4063 6.00001 14.0043 6.03975 13.6164 5.96276C13.2285 5.88577 12.8722 5.69551 12.5924 5.41602C12.4067 5.22995 12.2596 5.00911 12.1594 4.76614C12.0592 4.52316 12.0078 4.26282 12.0083 3.99999C12.0087 3.73716 12.061 3.47699 12.1621 3.23437C12.2632 2.99176 12.4111 2.77144 12.5974 2.58602H12.5924ZM2.59236 14.4173C2.4064 14.2315 2.25889 14.0109 2.15824 13.7682C2.05759 13.5254 2.00578 13.2651 2.00578 13.0023C2.00578 12.7394 2.05759 12.4792 2.15824 12.2364C2.25889 11.9936 2.4064 11.773 2.59236 11.5873C2.87215 11.3078 3.22852 11.1175 3.61642 11.0405C4.00432 10.9635 4.40634 11.0033 4.77166 11.1547C5.13699 11.3062 5.44921 11.5625 5.66888 11.8914C5.88854 12.2202 6.00578 12.6068 6.00578 13.0023C6.00578 13.3977 5.88854 13.7843 5.66888 14.1132C5.44921 14.442 5.13699 14.6984 4.77166 14.8498C4.40634 15.0013 4.00432 15.041 3.61642 14.964C3.22852 14.887 2.87215 14.6968 2.59236 14.4173ZM20.4236 25.4173C20.0485 25.7924 19.5397 26.0031 19.0092 26.0031C18.4787 26.0031 17.97 25.7924 17.5949 25.4173C17.2197 25.0422 17.009 24.5334 17.009 24.0029C17.009 23.4724 17.2197 22.9636 17.5949 22.5885C17.7806 22.4028 18.0011 22.2554 18.2438 22.1549C18.4865 22.0544 18.7466 22.0027 19.0092 22.0027C19.2719 22.0027 19.532 22.0544 19.7747 22.1549C20.0174 22.2554 20.2379 22.4028 20.4236 22.5885C20.6093 22.7743 20.7567 22.9948 20.8572 23.2374C20.9577 23.4801 21.0095 23.7402 21.0095 24.0029C21.0095 24.2656 20.9577 24.5257 20.8572 24.7684C20.7567 25.011 20.6093 25.2315 20.4236 25.4173ZM19.3549 20.0198C18.3179 19.9295 17.2865 20.2469 16.4799 20.9048L7.72986 14.4848C7.9419 13.9499 8.03668 13.3757 8.00778 12.801C7.97889 12.2263 7.82699 11.6645 7.56236 11.1535L11.8061 7.33477C12.2627 7.63737 12.7765 7.84298 13.3158 7.93885C13.855 8.03473 14.4082 8.01884 14.9411 7.89215C15.474 7.76547 15.9752 7.53069 16.4136 7.20238C16.852 6.87407 17.2183 6.45921 17.4899 5.98352L21.0124 6.94727C21.0028 7.61221 21.1592 8.26904 21.4674 8.85832C21.7756 9.44761 22.2258 9.95077 22.7774 10.3223L19.3549 20.0198ZM26.4249 8.41477C26.242 8.6124 26.0211 8.77107 25.7755 8.88127C25.5298 8.99148 25.2644 9.05094 24.9952 9.0561C24.726 9.06127 24.4585 9.01202 24.2088 8.91132C23.9591 8.81062 23.7323 8.66053 23.542 8.47006C23.3517 8.27959 23.2018 8.05265 23.1013 7.80286C23.0009 7.55306 22.9519 7.28555 22.9573 7.01635C22.9627 6.74716 23.0224 6.48183 23.1328 6.23626C23.2432 5.9907 23.4021 5.76996 23.5999 5.58727C23.975 5.21216 24.4837 5.00142 25.0142 5.00142C25.5447 5.00142 26.0535 5.21216 26.4286 5.58727C26.8037 5.96239 27.0145 6.47116 27.0145 7.00165C27.0145 7.53214 26.8037 8.04091 26.4286 8.41602L26.4249 8.41477Z" fill="white"/>
</svg>
