<svg width="28" height="26" viewBox="0 0 28 26" fill="none" xmlns="http://www.w3.org/2000/svg">
<path d="M19.1963 6.0721C18.2913 3.9533 16.6824 2.21199 14.6416 1.14257C12.6009 0.0731474 10.2534 -0.258781 7.99616 0.202901C5.73891 0.664582 3.71031 1.89155 2.25334 3.67637C0.796367 5.46119 0.000397309 7.69436 0 9.99835V18.2484C0 18.7125 0.184375 19.1576 0.512563 19.4858C0.840752 19.814 1.28587 19.9984 1.75 19.9984H8.83375C9.6141 21.7804 10.8964 23.2967 12.5241 24.3622C14.1519 25.4277 16.0546 25.9962 18 25.9984H26.25C26.7141 25.9984 27.1592 25.814 27.4874 25.4858C27.8156 25.1576 28 24.7125 28 24.2484V15.9984C27.9995 13.5537 27.1036 11.1939 25.4814 9.3649C23.8593 7.53594 21.6234 6.36454 19.1963 6.0721ZM2 9.99835C2 8.4161 2.46919 6.86938 3.34824 5.55379C4.22729 4.2382 5.47672 3.21282 6.93853 2.60732C8.40034 2.00181 10.0089 1.84339 11.5607 2.15207C13.1126 2.46075 14.538 3.22268 15.6569 4.3415C16.7757 5.46032 17.5376 6.88578 17.8463 8.43763C18.155 9.98948 17.9965 11.598 17.391 13.0598C16.7855 14.5216 15.7602 15.7711 14.4446 16.6501C13.129 17.5292 11.5823 17.9984 10 17.9984H2V9.99835ZM26 23.9984H18C16.5854 23.9967 15.1964 23.6209 13.974 22.9089C12.7516 22.1969 11.7394 21.1742 11.04 19.9446C12.4096 19.8025 13.7351 19.3788 14.9333 18.7001C16.1314 18.0214 17.1763 17.1023 18.0024 16.0006C18.8284 14.899 19.4179 13.6384 19.7337 12.2981C20.0495 10.9578 20.0848 9.56671 19.8375 8.2121C21.5916 8.62606 23.1545 9.62019 24.273 11.0334C25.3915 12.4466 26 14.1961 26 15.9984V23.9984Z" fill="white"/>
</svg>
