<svg width="14" height="14" viewBox="0 0 14 14" fill="none" xmlns="http://www.w3.org/2000/svg">
<path d="M12.9663 7.33491C13.1479 7.15323 13.25 6.90683 13.25 6.6499C13.25 6.39298 13.1479 6.14657 12.9663 5.96489C12.7846 5.78322 12.5382 5.68115 12.2812 5.68115H8.09375V1.49365C8.09375 1.23673 7.99169 0.990319 7.81001 0.808643C7.62833 0.626967 7.38193 0.524902 7.125 0.524902C6.86807 0.524902 6.62167 0.626967 6.43999 0.808643C6.25831 0.990318 6.15625 1.23672 6.15625 1.49365V5.68115H1.96875C1.71182 5.68115 1.46542 5.78322 1.28374 5.96489C1.10206 6.14657 1 6.39297 1 6.6499C1 6.90683 1.10206 7.15324 1.28374 7.33491C1.46542 7.51659 1.71182 7.61865 1.96875 7.61865H6.15625V11.8062C6.15625 12.0631 6.25831 12.3095 6.43999 12.4912C6.62167 12.6728 6.86807 12.7749 7.125 12.7749C7.38193 12.7749 7.62833 12.6728 7.81001 12.4912C7.99169 12.3095 8.09375 12.0631 8.09375 11.8062V7.61865H12.2812C12.5382 7.61865 12.7846 7.51659 12.9663 7.33491Z" fill="#F2F2F5" stroke="#F2F2F5"/>
</svg>
