<svg width="27" height="24" viewBox="0 0 27 24" fill="none" xmlns="http://www.w3.org/2000/svg">
<path d="M19 9.99994H25C25.5304 9.99994 26.0391 9.78922 26.4142 9.41415C26.7893 9.03908 27 8.53037 27 7.99994V1.99994C27 1.46951 26.7893 0.960798 26.4142 0.585725C26.0391 0.210653 25.5304 -6.10352e-05 25 -6.10352e-05H19C18.4696 -6.10352e-05 17.9609 0.210653 17.5858 0.585725C17.2107 0.960798 17 1.46951 17 1.99994V3.99994H16C14.9391 3.99994 13.9217 4.42137 13.1716 5.17151C12.4214 5.92166 12 6.93907 12 7.99994V10.9999H8V9.99994C8 9.46951 7.78929 8.9608 7.41421 8.58573C7.03914 8.21065 6.53043 7.99994 6 7.99994H2C1.46957 7.99994 0.960859 8.21065 0.585786 8.58573C0.210714 8.9608 0 9.46951 0 9.99994V13.9999C0 14.5304 0.210714 15.0391 0.585786 15.4142C0.960859 15.7892 1.46957 15.9999 2 15.9999H6C6.53043 15.9999 7.03914 15.7892 7.41421 15.4142C7.78929 15.0391 8 14.5304 8 13.9999V12.9999H12V15.9999C12 17.0608 12.4214 18.0782 13.1716 18.8284C13.9217 19.5785 14.9391 19.9999 16 19.9999H17V21.9999C17 22.5304 17.2107 23.0391 17.5858 23.4142C17.9609 23.7892 18.4696 23.9999 19 23.9999H25C25.5304 23.9999 26.0391 23.7892 26.4142 23.4142C26.7893 23.0391 27 22.5304 27 21.9999V15.9999C27 15.4695 26.7893 14.9608 26.4142 14.5857C26.0391 14.2107 25.5304 13.9999 25 13.9999H19C18.4696 13.9999 17.9609 14.2107 17.5858 14.5857C17.2107 14.9608 17 15.4695 17 15.9999V17.9999H16C15.4696 17.9999 14.9609 17.7892 14.5858 17.4142C14.2107 17.0391 14 16.5304 14 15.9999V7.99994C14 7.46951 14.2107 6.9608 14.5858 6.58573C14.9609 6.21065 15.4696 5.99994 16 5.99994H17V7.99994C17 8.53037 17.2107 9.03908 17.5858 9.41415C17.9609 9.78922 18.4696 9.99994 19 9.99994ZM6 13.9999H2V9.99994H6V13.9999ZM19 15.9999H25V21.9999H19V15.9999ZM19 1.99994H25V7.99994H19V1.99994Z" fill="white"/>
</svg>
