<svg width="29" height="27" viewBox="0 0 29 27" fill="none" xmlns="http://www.w3.org/2000/svg">
<path d="M14.0022 7.0027C12.8155 7.0027 11.6555 7.3546 10.6688 8.01389C9.68207 8.67317 8.91304 9.61025 8.45891 10.7066C8.00479 11.803 7.88597 13.0094 8.11748 14.1732C8.34899 15.3371 8.92043 16.4062 9.75955 17.2453C10.5987 18.0845 11.6678 18.6559 12.8316 18.8874C13.9955 19.1189 15.2019 19.0001 16.2983 18.546C17.3946 18.0919 18.3317 17.3228 18.991 16.3361C19.6503 15.3494 20.0022 14.1894 20.0022 13.0027C20.0005 11.4119 19.3679 9.88675 18.243 8.76189C17.1181 7.63703 15.593 7.00436 14.0022 7.0027ZM14.0022 17.0027C13.2111 17.0027 12.4377 16.7681 11.7799 16.3286C11.1221 15.8891 10.6094 15.2643 10.3067 14.5334C10.0039 13.8025 9.92471 12.9983 10.079 12.2223C10.2334 11.4464 10.6144 10.7337 11.1738 10.1743C11.7332 9.61487 12.4459 9.2339 13.2218 9.07956C13.9978 8.92522 14.802 9.00443 15.5329 9.30718C16.2638 9.60993 16.8885 10.1226 17.3281 10.7804C17.7676 11.4382 18.0022 12.2116 18.0022 13.0027C18.0022 14.0636 17.5808 15.081 16.8306 15.8311C16.0805 16.5813 15.0631 17.0027 14.0022 17.0027ZM27.7447 10.404C27.7168 10.2631 27.659 10.13 27.5751 10.0135C27.4912 9.89702 27.3832 9.79997 27.2584 9.72895L23.5297 7.60395L23.5147 3.40145C23.5142 3.25672 23.4824 3.11381 23.4213 2.98259C23.3602 2.85138 23.2714 2.73499 23.1609 2.64145C21.8084 1.49732 20.2507 0.620535 18.5709 0.0577024C18.4387 0.0129271 18.2985 -0.00364297 18.1594 0.00905924C18.0203 0.0217615 17.8854 0.0634543 17.7634 0.131452L14.0022 2.23395L10.2372 0.127702C10.1151 0.0593213 9.98008 0.0173136 9.84077 0.00439458C9.70146 -0.00852444 9.56099 0.00793271 9.42844 0.0527022C7.74988 0.61965 6.19406 1.49978 4.84344 2.64645C4.73315 2.73985 4.64442 2.85604 4.58335 2.98703C4.52228 3.11801 4.49032 3.26068 4.48969 3.4052L4.47094 7.61145L0.742191 9.73645C0.617443 9.80747 0.509447 9.90452 0.425543 10.021C0.341639 10.1375 0.283795 10.2706 0.255941 10.4115C-0.0853137 12.1263 -0.0853137 13.8916 0.255941 15.6065C0.283795 15.7473 0.341639 15.8804 0.425543 15.9969C0.509447 16.1134 0.617443 16.2104 0.742191 16.2815L4.47094 18.4065L4.48594 22.609C4.48639 22.7537 4.51826 22.8966 4.57933 23.0278C4.64041 23.159 4.72924 23.2754 4.83969 23.369C6.19228 24.5131 7.74989 25.3899 9.42969 25.9527C9.56198 25.9975 9.70217 26.014 9.84125 26.0013C9.98033 25.9886 10.1152 25.947 10.2372 25.879L14.0022 23.7715L17.7672 25.8777C17.9162 25.9607 18.0841 26.0038 18.2547 26.0027C18.3639 26.0027 18.4724 25.9849 18.5759 25.9502C20.2543 25.384 21.8101 24.5047 23.1609 23.359C23.2712 23.2656 23.36 23.1494 23.421 23.0184C23.4821 22.8874 23.5141 22.7447 23.5147 22.6002L23.5334 18.394L27.2622 16.269C27.3869 16.1979 27.4949 16.1009 27.5788 15.9844C27.6627 15.8679 27.7206 15.7348 27.7484 15.594C28.0878 13.8805 28.0865 12.1169 27.7447 10.404ZM25.8697 14.7677L22.2984 16.799C22.142 16.8879 22.0124 17.0175 21.9234 17.174C21.8509 17.299 21.7747 17.4315 21.6972 17.5565C21.598 17.7141 21.5451 17.8965 21.5447 18.0827L21.5259 22.114C20.566 22.8678 19.4966 23.4706 18.3547 23.9015L14.7522 21.894C14.6026 21.8112 14.4344 21.7682 14.2634 21.769H14.2397C14.0884 21.769 13.9359 21.769 13.7847 21.769C13.6058 21.7645 13.4289 21.8076 13.2722 21.894L9.66719 23.9065C8.52283 23.4789 7.45047 22.879 6.48719 22.1277L6.47344 18.1027C6.47282 17.9161 6.42 17.7334 6.32094 17.5752C6.24344 17.4502 6.16719 17.3252 6.09594 17.1927C6.0076 17.0338 5.87805 16.9017 5.72094 16.8102L2.14594 14.774C1.96094 13.6037 1.96094 12.4117 2.14594 11.2415L5.71094 9.20645C5.86741 9.11748 5.99697 8.98792 6.08594 8.83145C6.15844 8.70645 6.23469 8.57395 6.31219 8.44895C6.4114 8.29132 6.46424 8.10895 6.46469 7.9227L6.48344 3.89145C7.44335 3.13764 8.51276 2.53485 9.65469 2.10395L13.2522 4.11145C13.4088 4.19824 13.5857 4.24141 13.7647 4.23645C13.9159 4.23645 14.0684 4.23645 14.2197 4.23645C14.3986 4.24092 14.5754 4.19778 14.7322 4.11145L18.3372 2.09895C19.4816 2.52655 20.5539 3.12637 21.5172 3.8777L21.5309 7.9027C21.5316 8.08932 21.5844 8.27204 21.6834 8.4302C21.7609 8.5552 21.8372 8.6802 21.9084 8.8127C21.9968 8.97159 22.1263 9.10373 22.2834 9.1952L25.8584 11.2315C26.0459 12.4026 26.048 13.5959 25.8647 14.7677H25.8697Z" fill="white"/>
</svg>
