<svg width="30" height="25" viewBox="0 0 30 25" fill="none" xmlns="http://www.w3.org/2000/svg">
<path d="M28 3.5H25V2.5C25 1.96957 24.7893 1.46086 24.4142 1.08579C24.0391 0.710714 23.5304 0.5 23 0.5H7C6.46957 0.5 5.96086 0.710714 5.58579 1.08579C5.21071 1.46086 5 1.96957 5 2.5V3.5H2C1.46957 3.5 0.960859 3.71071 0.585786 4.08579C0.210714 4.46086 0 4.96957 0 5.5V7.5C0 8.82608 0.526784 10.0979 1.46447 11.0355C1.92876 11.4998 2.47995 11.8681 3.08658 12.1194C3.69321 12.3707 4.34339 12.5 5 12.5H5.45625C6.04531 14.3668 7.16846 16.02 8.68688 17.2554C10.2053 18.4908 12.0524 19.2542 14 19.4513V22.5H11C10.7348 22.5 10.4804 22.6054 10.2929 22.7929C10.1054 22.9804 10 23.2348 10 23.5C10 23.7652 10.1054 24.0196 10.2929 24.2071C10.4804 24.3946 10.7348 24.5 11 24.5H19C19.2652 24.5 19.5196 24.3946 19.7071 24.2071C19.8946 24.0196 20 23.7652 20 23.5C20 23.2348 19.8946 22.9804 19.7071 22.7929C19.5196 22.6054 19.2652 22.5 19 22.5H16V19.4475C19.9925 19.0438 23.305 16.2425 24.51 12.5H25C26.3261 12.5 27.5979 11.9732 28.5355 11.0355C29.4732 10.0979 30 8.82608 30 7.5V5.5C30 4.96957 29.7893 4.46086 29.4142 4.08579C29.0391 3.71071 28.5304 3.5 28 3.5ZM5 10.5C4.20435 10.5 3.44129 10.1839 2.87868 9.62132C2.31607 9.05871 2 8.29565 2 7.5V5.5H5V9.5C5 9.83333 5.01625 10.1667 5.04875 10.5H5ZM23 9.3875C23 13.8275 19.4388 17.4675 15.0613 17.5H15C12.8783 17.5 10.8434 16.6571 9.34315 15.1569C7.84285 13.6566 7 11.6217 7 9.5V2.5H23V9.3875ZM28 7.5C28 8.29565 27.6839 9.05871 27.1213 9.62132C26.5587 10.1839 25.7956 10.5 25 10.5H24.9375C24.9785 10.1306 24.9994 9.75919 25 9.3875V5.5H28V7.5Z" fill="#FFCC00"/>
</svg>
